<svg xmlns="http://www.w3.org/2000/svg" viewBox="0 0 300 300">
  <!-- Circular background -->
  <circle cx="150" cy="150" r="150" fill="#143264"/>
  
  <!-- Internal elements centered in the circle -->
  <path fill-rule="evenodd" clip-rule="evenodd" d="M136.308 192.91C132.971 198.259 125.915 199.866 120.59 196.491C115.32 193.15 113.731 186.182 117.033 180.887L165.377 103.357C168.693 98.0402 175.684 96.4062 181.013 99.7032C186.369 103.017 188.013 110.053 184.678 115.397L136.308 192.91ZM235.274 115.397C238.608 110.053 236.965 103.017 231.609 99.7032C226.28 96.4062 219.289 98.0402 215.973 103.357L167.629 180.887C164.327 186.182 165.915 193.15 171.186 196.491C176.511 199.866 183.566 198.259 186.904 192.91L235.274 115.397ZM77.5219 122.616C68.9494 122.616 62 129.542 62 138.086C62 146.63 68.9494 153.557 77.5219 153.557C86.0944 153.557 93.0437 146.63 93.0437 138.086C93.0438 133.983 91.4084 130.049 88.4975 127.147C85.5866 124.246 81.6385 122.616 77.5219 122.616ZM63.182 181.14C65.5845 175.359 71.2443 171.59 77.5223 171.59C81.639 171.589 85.587 173.219 88.498 176.121C91.4089 179.022 93.0442 182.957 93.0442 187.06C93.0442 193.317 89.2624 198.958 83.4623 201.353C77.6622 203.747 70.9859 202.423 66.5467 197.999C62.1075 193.575 60.7795 186.92 63.182 181.14Z" fill="#50D673"/>
</svg>
